<svg width="32" height="32" xmlns="http://www.w3.org/2000/svg" fill="none" viewBox="0 0 89 89"><circle cx="44.5" cy="44.5" r="44.5" fill="#000"/><path fill="#fff" d="M46.103 34.248 42.755 35.4l.72-1.332V54.48l-.72-1.044 3.348.972V57H36.059v-2.592L39.55 53.4l-.828 1.08V37.164l.756.036-6.588 13.212-3.24.18-6.336-13.464h.756V54.48l-.576-.972 3.24.9V57h-9.468v-2.592l3.348-.972-.684 1.044V34.068l.684 1.26-3.348-.9v-2.592l8.964-.18 5.94 13.788h-.612l6.228-13.608 8.316-.18v2.592Zm13.933-2.592c1.752 0 3.336.252 4.752.756 1.44.504 2.664 1.272 3.672 2.304 1.008 1.032 1.776 2.316 2.304 3.852.552 1.512.828 3.288.828 5.328 0 2.856-.516 5.256-1.548 7.2-1.008 1.944-2.436 3.42-4.284 4.428-1.824.984-3.984 1.476-6.48 1.476H48.696v-2.592l3.348-.972-.684 1.044V34.32l.756 1.044-3.42-.936v-2.592l8.172-.18h3.168Zm-.504 21.636c.768 0 1.536-.108 2.304-.324.768-.24 1.464-.672 2.088-1.296.648-.624 1.164-1.536 1.548-2.736.384-1.2.576-2.784.576-4.752 0-1.896-.18-3.42-.54-4.572-.36-1.176-.84-2.064-1.44-2.664-.6-.624-1.272-1.044-2.016-1.26a7.484 7.484 0 0 0-2.16-.324h-4.176l.792-.792v19.512l-.792-.792h3.816Z"/></svg>