<svg width="80" height="48" viewBox="0 0 80 48" fill="none" xmlns="http://www.w3.org/2000/svg">
<g clip-path="url(#clip0_12_24680)">
<path d="M18.88 12.52H34.01V13.71H20.26V22.71H33.15V23.88H20.26V33.74H34.13V34.93H18.88V12.52ZM35.32 12.52H36.92L44.01 22.37L51.27 12.52L61.17 0L44.94 23.41L53.3 34.93H51.63L44.01 24.44L36.39 34.93H34.75L43.18 23.41L35.32 12.52ZM53.9 13.71V12.52H71.09V13.71H63.17V34.93H61.79V13.71H53.9ZM0.0100098 12.52H1.74001L25.57 48L15.72 34.93L1.45001 14.21L1.39001 34.93H0.0100098V12.52ZM70.95 33.38C70.8848 33.38 70.8203 33.367 70.7602 33.3418C70.7 33.3165 70.6456 33.2795 70.5999 33.233C70.5543 33.1864 70.5184 33.1312 70.4944 33.0706C70.4704 33.01 70.4587 32.9452 70.46 32.88C70.46 32.7474 70.5127 32.6202 70.6065 32.5264C70.7002 32.4327 70.8274 32.38 70.96 32.38C71.0926 32.38 71.2198 32.4327 71.3136 32.5264C71.4073 32.6202 71.46 32.7474 71.46 32.88C71.4614 32.946 71.4494 33.0117 71.4247 33.0729C71.4001 33.1342 71.3633 33.1899 71.3166 33.2366C71.2699 33.2833 71.2142 33.3201 71.153 33.3447C71.0917 33.3694 71.026 33.3814 70.96 33.38H70.95ZM72.31 32.08H73.01C73.011 32.1737 73.0314 32.2663 73.0699 32.3517C73.1084 32.4372 73.1641 32.5138 73.2336 32.5767C73.3031 32.6397 73.3848 32.6875 73.4737 32.7173C73.5626 32.7472 73.6566 32.7583 73.75 32.75C74.23 32.75 74.5 32.46 74.5 31.92V28.48H75.25V31.9C75.2729 32.1044 75.2503 32.3113 75.1836 32.5058C75.1169 32.7003 75.0079 32.8776 74.8644 33.0249C74.7209 33.1722 74.5465 33.2859 74.3538 33.3577C74.1611 33.4294 73.9549 33.4576 73.75 33.44C73.5648 33.4509 73.3793 33.4238 73.205 33.3604C73.0306 33.2969 72.8711 33.1985 72.7362 33.0711C72.6013 32.9437 72.4939 32.7901 72.4206 32.6196C72.3473 32.4492 72.3097 32.2655 72.31 32.08ZM76.31 32.08H77.01C77.07 32.54 77.52 32.83 78.17 32.83C78.82 32.83 79.17 32.52 79.17 32.09C79.17 31.66 78.89 31.5 78.24 31.35L77.62 31.2C76.74 30.99 76.34 30.57 76.34 29.86C76.34 29.15 77.05 28.43 78.11 28.43C78.5244 28.3847 78.9399 28.504 79.2673 28.7621C79.5946 29.0202 79.8074 29.3965 79.86 29.81H79.12C79.0699 29.5886 78.9406 29.3932 78.7564 29.2606C78.5722 29.128 78.3458 29.0673 78.12 29.09C77.52 29.09 77.12 29.37 77.12 29.81C77.12 30.25 77.38 30.35 78.01 30.5L78.55 30.63C79.55 30.86 79.95 31.26 79.95 31.99C79.95 32.92 79.23 33.5 78.08 33.5C76.93 33.5 76.28 32.94 76.23 32.08H76.31Z" fill="black"/>
</g>
<defs>
<clipPath id="clip0_12_24680">
<rect width="80" height="48" fill="white"/>
</clipPath>
</defs>
</svg>
